<svg width="214" height="51" viewBox="0 0 214 51" fill="none" xmlns="http://www.w3.org/2000/svg">
<path d="M54.3707 2.64722H68.4556V5.40795H63.0034V23.1994H59.6715V5.40795H54.2192V2.64722H54.3707Z" fill="black"/>
<path d="M71.939 1.42029H75.2709V8.93563C76.331 7.40188 78.1485 6.63501 80.1173 6.63501C83.7521 6.63501 86.4782 9.089 86.4782 13.5369V23.0461H83.2978V14.1503C83.2978 11.2362 81.6318 9.7025 79.3601 9.7025C76.9368 9.7025 75.2709 11.2362 75.2709 14.1503V23.1994H71.939V1.42029Z" fill="black"/>
<path d="M90.2646 2.64724C90.2646 1.42025 91.1734 0.5 92.385 0.5C93.5966 0.5 94.5053 1.42025 94.5053 2.64724C94.5053 3.87423 93.5966 4.79448 92.385 4.79448C91.1734 4.79448 90.2646 3.87423 90.2646 2.64724ZM90.719 6.94172H94.0509V23.1994H90.719V6.94172Z" fill="black"/>
<path d="M109.802 14.1503C109.802 11.2362 108.136 9.70249 105.864 9.70249C103.441 9.70249 101.775 11.2362 101.775 14.1503V23.1994H98.4429V6.94176H101.775V8.78225C102.835 7.40188 104.652 6.63501 106.47 6.63501C110.256 6.63501 112.982 9.089 112.982 13.5369V23.0461H109.65V14.1503H109.802Z" fill="black"/>
<path d="M117.223 1.42029H120.555V14.1503L126.31 7.09514H130.853L123.432 15.224L130.853 23.3528H126.31L120.403 16.451V23.3528H117.071V1.42029H117.223Z" fill="black"/>
<path d="M68.0015 50.1932H59.9746V29.7944H67.6986C71.9392 29.7944 74.211 32.2484 74.211 35.0092C74.211 37.4631 72.6965 38.9969 70.7276 39.7638C72.8479 40.0705 74.6653 42.3711 74.6653 44.8251C74.5139 47.8926 72.0907 50.1932 68.0015 50.1932ZM67.2443 32.5552H63.1551V38.3834H67.2443C69.3646 38.3834 70.7276 37.3098 70.7276 35.4693C70.7276 33.6288 69.3646 32.5552 67.2443 32.5552ZM67.5472 41.1441H63.1551V47.5858H67.6986C69.9704 47.5858 71.3334 46.5122 71.3334 44.5184C71.3334 42.3711 69.8189 41.1441 67.5472 41.1441Z" fill="black"/>
<path d="M77.6943 29.7945C77.6943 28.5675 78.603 27.6472 79.8146 27.6472C81.0262 27.6472 81.9349 28.5675 81.9349 29.7945C81.9349 31.0214 81.0262 31.9417 79.8146 31.9417C78.603 31.9417 77.6943 31.0214 77.6943 29.7945ZM78.1487 34.0889H81.4806V50.3466H78.1487V34.0889Z" fill="black"/>
<path d="M92.8394 50.5C88.2959 50.5 84.8125 47.2791 84.8125 42.0644C84.8125 37.003 88.4473 33.6288 92.9908 33.6288C97.5344 33.6288 101.169 36.8496 101.169 42.0644C101.169 47.2791 97.3829 50.5 92.8394 50.5ZM92.8394 47.5858C95.2626 47.5858 97.6858 45.7454 97.6858 42.0644C97.6858 38.3834 95.2626 36.5429 92.8394 36.5429C90.2647 36.5429 88.1444 38.3834 88.1444 42.0644C88.1444 45.7454 90.2647 47.5858 92.8394 47.5858Z" fill="black"/>
<path d="M110.256 50.5C106.47 50.5 103.744 48.1993 103.592 45.2852H107.076C107.227 46.6656 108.439 47.7392 110.256 47.7392C112.225 47.7392 113.134 46.9723 113.134 45.7454C113.134 42.5245 103.895 44.365 103.895 38.3834C103.895 35.776 106.318 33.6288 110.105 33.6288C113.739 33.6288 116.163 35.6226 116.314 38.8435H112.982C112.831 37.4631 111.771 36.3895 109.953 36.3895C108.136 36.3895 107.227 37.1564 107.227 38.23C107.227 41.4509 116.314 39.6104 116.466 45.592C116.314 48.5061 114.042 50.5 110.256 50.5Z" fill="black"/>
<path d="M126.613 33.7822C130.551 33.7822 133.126 35.7761 134.034 39.1503H130.4C129.794 37.6166 128.582 36.543 126.613 36.543C123.887 36.543 122.221 38.5368 122.221 42.0644C122.221 45.592 124.039 47.5859 126.613 47.5859C128.582 47.5859 129.794 46.6657 130.4 44.9785H134.034C133.126 48.1994 130.551 50.3466 126.613 50.3466C122.07 50.3466 118.738 47.1258 118.738 41.9111C118.889 37.0031 122.07 33.7822 126.613 33.7822Z" fill="black"/>
<path d="M136.912 29.7945C136.912 28.5675 137.82 27.6472 139.032 27.6472C140.244 27.6472 141.152 28.5675 141.152 29.7945C141.152 31.0214 140.244 31.9417 139.032 31.9417C137.82 31.9417 136.912 31.0214 136.912 29.7945ZM137.366 34.0889H140.698V50.3466H137.366V34.0889Z" fill="black"/>
<path d="M151.905 50.5C147.362 50.5 143.878 47.2791 143.878 42.0644C143.878 37.003 147.21 33.6288 151.905 33.6288C156.449 33.6288 159.629 36.8496 159.629 41.6042C159.629 42.2177 159.629 42.6779 159.478 43.2914H147.21C147.513 45.8987 149.331 47.5858 151.754 47.5858C153.723 47.5858 154.934 46.5122 155.54 45.2852H159.175C158.418 48.1993 155.843 50.5 151.905 50.5ZM147.362 40.684H156.297C156.297 38.23 154.329 36.5429 151.754 36.5429C149.634 36.5429 147.816 38.0766 147.362 40.684Z" fill="black"/>
<path d="M174.32 41.1442C174.32 38.2301 172.654 36.6963 170.382 36.6963C167.959 36.6963 166.293 38.2301 166.293 41.1442V50.1933H162.961V34.089H166.293V35.9295C167.353 34.5491 169.17 33.7822 170.988 33.7822C174.774 33.7822 177.5 36.2362 177.5 40.6841V50.1933H174.168V41.1442H174.32Z" fill="black"/>
<path d="M188.556 33.7822C192.494 33.7822 195.068 35.7761 195.977 39.1503H192.342C191.737 37.6166 190.525 36.543 188.556 36.543C185.83 36.543 184.164 38.5368 184.164 42.0644C184.164 45.592 185.981 47.5859 188.556 47.5859C190.525 47.5859 191.737 46.6657 192.342 44.9785H195.977C195.068 48.1994 192.494 50.3466 188.556 50.3466C184.013 50.3466 180.681 47.1258 180.681 41.9111C180.832 37.0031 184.013 33.7822 188.556 33.7822Z" fill="black"/>
<path d="M206.125 50.5C201.581 50.5 198.098 47.2791 198.098 42.0644C198.098 37.003 201.43 33.6288 206.125 33.6288C210.668 33.6288 213.849 36.8496 213.849 41.6042C213.849 42.2177 213.849 42.6779 213.697 43.2914H201.43C201.732 45.8987 203.55 47.5858 205.973 47.5858C207.942 47.5858 209.154 46.5122 209.759 45.2852H213.394C212.637 48.1993 210.062 50.5 206.125 50.5ZM201.732 40.684H210.668C210.668 38.23 208.699 36.5429 206.125 36.5429C203.853 36.5429 202.035 38.0766 201.732 40.684Z" fill="black"/>
<path d="M23.6263 38.3835C23.6263 44.9786 28.9271 50.3467 35.4395 50.3467C41.9519 50.3467 47.2527 44.9786 47.2527 38.3835C47.2527 31.7884 41.9519 26.4203 35.4395 26.4203C28.9271 26.4203 23.6263 21.0522 23.6263 14.4571C23.6263 7.86199 18.3255 2.4939 11.8132 2.4939C5.30078 2.4939 0 7.86199 0 14.4571C0 21.0522 5.30078 26.4203 11.8132 26.4203C18.3255 26.4203 23.6263 31.7884 23.6263 38.3835Z" fill="#6AD39D"/>
<path d="M35.4396 2.4939C28.9272 2.4939 23.6265 7.86199 23.6265 14.4571C23.6265 14.6105 23.6265 14.7638 23.6265 14.9172C23.9294 14.9172 34.3795 15.0706 35.4396 26.4203C41.952 26.4203 47.2528 21.0522 47.2528 14.4571C47.2528 7.86199 41.952 2.4939 35.4396 2.4939Z" fill="#EFA33B"/>
</svg>
